<svg width="65" height="64" viewBox="0 0 65 64" fill="none" xmlns="http://www.w3.org/2000/svg">
<g clip-path="url(#clip0_16_3390)">
<path fill-rule="evenodd" clip-rule="evenodd" d="M55.7 22.4C60.5601 22.4 64.5 18.4602 64.5 13.6C64.5 8.73994 60.5601 4.80005 55.7 4.80005C50.8399 4.80005 46.9 8.73994 46.9 13.6C46.9 18.4602 50.8399 22.4 55.7 22.4ZM39.7 13.6C41.1035 13.6 42.4625 13.7903 43.7527 14.1463C43.7179 14.4928 43.7 14.8443 43.7 15.2C43.7 20.9438 48.3562 25.6 54.1 25.6C54.2543 25.6 54.4078 25.5967 54.5604 25.59C54.7829 26.6248 54.9 27.6988 54.9 28.8V48C54.9 51.0928 52.3928 53.6001 49.3 53.6001C46.2072 53.6001 43.7 51.0928 43.7 48V28.8C43.7 26.5909 41.9091 24.8 39.7 24.8C37.4909 24.8 35.7 26.5909 35.7 28.8V48C35.7 51.0928 33.1928 53.6001 30.1 53.6001C27.0072 53.6001 24.5 51.0928 24.5 48V28.8C24.5 26.5909 22.7091 24.8 20.5 24.8C18.2909 24.8 16.5 26.5909 16.5 28.8V48C16.5 51.0928 13.9928 53.6001 10.9 53.6001C7.80721 53.6001 5.3 51.0928 5.3 48V28.8C5.3 20.4053 12.1053 13.6 20.5 13.6C24.1408 13.6 27.4826 14.8801 30.1 17.0147C32.7174 14.8801 36.0592 13.6 39.7 13.6Z" fill="#2B45F2"/>
</g>
<defs>
<clipPath id="clip0_16_3390">
<rect width="64" height="64" fill="white" transform="translate(0.5)"/>
</clipPath>
</defs>
</svg>
