<svg width="20" height="20" viewBox="0 0 20 20" fill="none" xmlns="http://www.w3.org/2000/svg">
<path fill-rule="evenodd" clip-rule="evenodd" d="M9.70712 1.29289C9.3166 0.902369 8.68343 0.902369 8.29291 1.29289L0.292909 9.28125L0.20972 9.3871C0.193314 9.4082 0.177871 9.42986 0.16339 9.45202C0.0600975 9.6094 1.52588e-05 9.79768 1.52588e-05 10C1.52588e-05 10.0014 1.82138e-05 10.0028 2.41179e-05 10.0043C-0.00104348 10.2668 0.0965846 10.5302 0.292908 10.7266L8.29291 18.7071L8.38712 18.7903C8.77941 19.0953 9.34664 19.0676 9.70712 18.7071L9.79031 18.6129C10.0953 18.2206 10.0676 17.6534 9.70712 17.2929L3.41491 11H19C19.5523 11 20 10.5523 20 10C20 9.44771 19.5523 9 19 9H3.41491L9.70712 2.70711L9.79031 2.6129C10.0953 2.22061 10.0676 1.65338 9.70712 1.29289Z" fill="black"/>
</svg>
