<svg width="64" height="64" viewBox="0 0 64 64" fill="none" xmlns="http://www.w3.org/2000/svg">
<path fill-rule="evenodd" clip-rule="evenodd" d="M55.2 22.3998C60.0602 22.3998 64 18.4599 64 13.5998C64 8.7397 60.0602 4.7998 55.2 4.7998C50.3399 4.7998 46.4001 8.7397 46.4001 13.5998C46.4001 18.4599 50.3399 22.3998 55.2 22.3998ZM39.2 13.5998C40.6035 13.5998 41.9625 13.79 43.2528 14.1461C43.2179 14.4926 43.2 14.8441 43.2 15.1998C43.2 20.9436 47.8563 25.5998 53.6 25.5998C53.7543 25.5998 53.9078 25.5964 54.0605 25.5898C54.2829 26.6246 54.4001 27.6985 54.4001 28.7998V47.9998C54.4001 51.0926 51.8928 53.5998 48.8 53.5998C45.7073 53.5998 43.2 51.0926 43.2 47.9998V28.7998C43.2 26.5907 41.4092 24.7998 39.2 24.7998C36.9909 24.7998 35.2 26.5907 35.2 28.7998V47.9998C35.2 51.0926 32.6928 53.5998 29.6 53.5998C26.5073 53.5998 24 51.0926 24 47.9998V28.7998C24 26.5907 22.2092 24.7998 20 24.7998C17.7909 24.7998 16 26.5907 16 28.7998V47.9998C16 51.0926 13.4928 53.5998 10.4 53.5998C7.30725 53.5998 4.80005 51.0926 4.80005 47.9998V28.7998C4.80005 20.4051 11.6053 13.5998 20 13.5998C23.6409 13.5998 26.9827 14.8799 29.6 17.0145C32.2174 14.8799 35.5592 13.5998 39.2 13.5998Z" fill="#2B45F2"/>
</svg>
