<svg width="20" height="20" viewBox="0 0 20 20" fill="none" xmlns="http://www.w3.org/2000/svg">
<path fill-rule="evenodd" clip-rule="evenodd" d="M1.29289 1.29289C1.68342 0.902369 2.31658 0.902369 2.70711 1.29289L10 8.58579L17.2929 1.29289C17.6834 0.902369 18.3166 0.902369 18.7071 1.29289C19.0676 1.65338 19.0953 2.22061 18.7903 2.6129L18.7071 2.70711L11.415 10L18.7071 17.2929C19.0676 17.6534 19.0953 18.2206 18.7903 18.6129L18.7071 18.7071C18.3466 19.0676 17.7794 19.0953 17.3871 18.7903L17.2929 18.7071L10 11.4142L2.70711 18.7071L2.6129 18.7903C2.22061 19.0953 1.65338 19.0676 1.29289 18.7071L1.2097 18.6129C0.90468 18.2206 0.932409 17.6534 1.29289 17.2929L8.585 10L1.29289 2.70711L1.2097 2.6129C0.90468 2.22061 0.932409 1.65338 1.29289 1.29289Z" fill="black"/>
</svg>
