<svg width="26" height="26" viewBox="0 0 26 26" fill="none" xmlns="http://www.w3.org/2000/svg">
<rect x="1" y="1" width="24" height="24" rx="12" fill="#EEEEEE"/>
<path fill-rule="evenodd" clip-rule="evenodd" d="M13 23C7.47715 23 3 18.5228 3 13C3 7.47715 7.47715 3 13 3C18.5228 3 23 7.47715 23 13C23 18.5228 18.5228 23 13 23ZM1 13C1 6.37258 6.37258 1 13 1C19.6274 1 25 6.37258 25 13C25 19.6274 19.6274 25 13 25C6.37258 25 1 19.6274 1 13ZM18.5609 8.33741C18.0265 7.84148 17.2143 7.89892 16.7467 8.46569L11.6517 14.6418L9.19485 12.0358L9.0972 11.9422C8.59221 11.5053 7.8473 11.5365 7.37658 12.0358C6.87447 12.5683 6.87447 13.4317 7.37658 13.9642L10.8051 17.6006L10.9013 17.6929C11.4311 18.1528 12.2209 18.093 12.6819 17.5343L18.6819 10.2616L18.7634 10.152C19.1408 9.58858 19.0619 8.80235 18.5609 8.33741Z" fill="#DDDDDD"/>
</svg>
