<svg width="20" height="20" viewBox="0 0 20 20" fill="none" xmlns="http://www.w3.org/2000/svg">
<path fill-rule="evenodd" clip-rule="evenodd" d="M1 1C0.447715 1 0 1.44772 0 2C0 2.55228 0.447715 3 1 3H19C19.5523 3 20 2.55228 20 2C20 1.44772 19.5523 1 19 1H1ZM0 10C0 9.44771 0.447715 9 1 9H19C19.5523 9 20 9.44771 20 10C20 10.5523 19.5523 11 19 11H1C0.447715 11 0 10.5523 0 10ZM0 18C0 17.4477 0.447715 17 1 17H19C19.5523 17 20 17.4477 20 18C20 18.5523 19.5523 19 19 19H1C0.447715 19 0 18.5523 0 18Z" fill="black"/>
</svg>
