<svg width="27" height="31" viewBox="0 0 27 31" fill="none" xmlns="http://www.w3.org/2000/svg">
<g clip-path="url(#clip0_16_1542)">
<path fill-rule="evenodd" clip-rule="evenodd" d="M26.623 13.4977C26.623 6.1594 20.6821 0.188477 13.3818 0.188477C6.08102 0.188477 0.140625 6.1594 0.140625 13.4977C0.140625 19.9244 4.67527 25.3028 10.7064 26.5334L13.3818 31.0002L16.0572 26.5334C22.0883 25.3028 26.623 19.9244 26.623 13.4977Z" fill="#4170F4"/>
<path d="M12.5489 8.92705C12.8483 8.00574 14.1517 8.00574 14.4511 8.92705L14.9593 10.4914C15.0932 10.9034 15.4772 11.1824 15.9104 11.1824H17.5552C18.524 11.1824 18.9267 12.422 18.143 12.9914L16.8123 13.9582C16.4618 14.2128 16.3152 14.6642 16.449 15.0762L16.9573 16.6406C17.2567 17.5619 16.2022 18.328 15.4185 17.7586L14.0878 16.7918C13.7373 16.5372 13.2627 16.5372 12.9122 16.7918L11.5815 17.7586C10.7978 18.328 9.74331 17.5619 10.0427 16.6406L10.551 15.0762C10.6848 14.6642 10.5382 14.2128 10.1877 13.9582L8.85698 12.9914C8.07326 12.422 8.47604 11.1824 9.44476 11.1824H11.0896C11.5228 11.1824 11.9068 10.9034 12.0407 10.4914L12.5489 8.92705Z" fill="white"/>
<path d="M11.6271 25.9871L11.3996 25.6122L10.9697 25.5256C5.2751 24.3789 1 19.3678 1 13.3905C1 6.56734 6.6011 1 13.5 1C20.3985 1 26 6.56736 26 13.3905C26 19.3678 21.7249 24.3789 16.0303 25.5256L15.6004 25.6122L15.3729 25.9871L13.5 29.0727L11.6271 25.9871Z" stroke="#375FCF" stroke-width="2"/>
</g>
<defs>
<clipPath id="clip0_16_1542">
<rect width="27" height="31" fill="white"/>
</clipPath>
</defs>
</svg>
