<svg width="27" height="31" viewBox="0 0 27 31" fill="none" xmlns="http://www.w3.org/2000/svg">
<g clip-path="url(#clip0_16_1533)">
<path fill-rule="evenodd" clip-rule="evenodd" d="M26.623 13.4977C26.623 6.1594 20.6821 0.188477 13.3818 0.188477C6.08102 0.188477 0.140625 6.1594 0.140625 13.4977C0.140625 19.9244 4.67527 25.3028 10.7064 26.5334L13.3818 31.0002L16.0572 26.5334C22.0883 25.3028 26.623 19.9244 26.623 13.4977" fill="#00D689"/>
<path d="M11.6271 25.9871L11.3996 25.6122L10.9697 25.5256C5.2751 24.3789 1 19.3678 1 13.3905C1 6.56734 6.6011 1 13.5 1C20.3985 1 26 6.56736 26 13.3905C26 19.3678 21.7249 24.3789 16.0303 25.5256L15.6004 25.6122L15.3729 25.9871L13.5 29.0727L11.6271 25.9871Z" stroke="#00B674" stroke-width="2"/>
</g>
<defs>
<clipPath id="clip0_16_1533">
<rect width="27" height="31" fill="white"/>
</clipPath>
</defs>
</svg>
