<svg width="42" height="49" viewBox="0 0 42 49" fill="none" xmlns="http://www.w3.org/2000/svg">
<g clip-path="url(#clip0_16_1546)">
<path fill-rule="evenodd" clip-rule="evenodd" d="M41.2098 21.1049C41.2098 10.0197 32.1895 1 21.1049 1C10.0197 1 1 10.0197 1 21.1049C1 30.8131 7.88525 38.9377 17.0426 40.7967L21.1049 47.5443L25.1672 40.7967C34.3246 38.9377 41.2098 30.8131 41.2098 21.1049Z" fill="#00D689"/>
<path fill-rule="evenodd" clip-rule="evenodd" d="M21.0005 1.71875C10.3715 1.71875 1.72461 10.3392 1.72461 20.934C1.72461 30.0357 8.1922 37.9507 17.1032 39.7547L17.475 39.8296L21.0005 45.6671L24.5267 39.8296L24.8977 39.7547C33.8087 37.9507 40.2763 30.0357 40.2763 20.934C40.2763 10.3392 31.6294 1.71875 21.0005 1.71875ZM21 49L16.3855 41.3593C6.86759 39.2507 0 30.7225 0 20.934C0 9.39108 9.42 0 21 0C32.5793 0 42 9.39108 42 20.934C42 30.7218 35.1324 39.2507 25.6145 41.3593L21 49Z" fill="#00B674"/>
</g>
<defs>
<clipPath id="clip0_16_1546">
<rect width="42" height="49" fill="white"/>
</clipPath>
</defs>
</svg>
