<svg width="64" height="64" viewBox="0 0 64 64" fill="none" xmlns="http://www.w3.org/2000/svg">
<g clip-path="url(#clip0_60_3357)">
<circle cx="32" cy="32" r="32" fill="#0019F4"/>
<path fill-rule="evenodd" clip-rule="evenodd" d="M46.5 26C49.5376 26 52 23.5376 52 20.5C52 17.4624 49.5376 15 46.5 15C43.4624 15 41 17.4624 41 20.5C41 23.5376 43.4624 26 46.5 26ZM36.5 20.5C37.3772 20.5 38.2266 20.6189 39.033 20.8414C39.0112 21.058 39 21.2777 39 21.5C39 25.0899 41.9101 28 45.5 28C45.5964 28 45.6924 27.9979 45.7878 27.9937C45.9268 28.6405 46 29.3117 46 30V42C46 43.933 44.433 45.5 42.5 45.5C40.567 45.5 39 43.933 39 42V30C39 28.6193 37.8807 27.5 36.5 27.5C35.1193 27.5 34 28.6193 34 30V42C34 43.933 32.433 45.5 30.5 45.5C28.567 45.5 27 43.933 27 42V30C27 28.6193 25.8807 27.5 24.5 27.5C23.1193 27.5 22 28.6193 22 30V42C22 43.933 20.433 45.5 18.5 45.5C16.567 45.5 15 43.933 15 42V30C15 24.7533 19.2533 20.5 24.5 20.5C26.7755 20.5 28.8641 21.3 30.5 22.6342C32.1359 21.3 34.2245 20.5 36.5 20.5Z" fill="white"/>
</g>
<defs>
<clipPath id="clip0_60_3357">
<rect width="64" height="64" fill="white"/>
</clipPath>
</defs>
</svg>
