<svg width="220" height="245" viewBox="0 0 220 245" fill="none" xmlns="http://www.w3.org/2000/svg">
<g clip-path="url(#clip0_16_3470)">
<path d="M59.8477 120L123.5 30L161 52C139.833 77.3333 92.6477 138.4 85.8477 146C76.0056 157 59.8477 167.08 50.8477 157C40.8477 145.8 52.681 127.667 59.8477 120Z" fill="#F49691"/>
<path d="M81.8477 144L154 53.5L179.848 84.5C158.681 109.833 114.648 162.4 107.848 170C99.3477 179.5 79.8477 189.5 72.8477 181C62.8477 169.8 74.681 151.667 81.8477 144Z" fill="#F5A5A5"/>
<path d="M76 152.5C66.4 140.9 21.6667 46 0.5 0H216.5C218.5 8.5 221.5 58.5 219 79.5C216.121 103.683 176.167 146.667 156 173L137.5 124C141.833 114.833 164 95.5 162.5 79.5C156 56 138.721 36.8266 125.5 42C114 46.5 103 62.5 103 87C103 101.509 115 158.5 115 162.5C115 166.5 113.5 171.5 106 173C98.5 174.5 88 167 76 152.5Z" fill="#FFC2C2"/>
<rect x="21" y="235" width="180" height="10" rx="5" fill="#1A6FEE"/>
<g clip-path="url(#clip1_16_3470)">
<path fill-rule="evenodd" clip-rule="evenodd" d="M161.597 103.064C164.161 104.089 165.408 106.999 164.383 109.563L160.493 119.291C159.883 120.816 160.076 122.53 160.867 123.969C164.979 131.448 169.908 146.341 164.202 160.61L130.912 243.856C127.745 249.992 117.952 260.88 104.111 255.345L94.6813 251.574L89.5745 249.532L80.1452 245.761C66.3039 240.226 66.7186 225.587 68.6561 218.96L101.946 135.714C107.652 121.445 121.491 114.058 129.627 111.476C131.192 110.979 132.514 109.871 133.123 108.346L137.014 98.6181C138.039 96.0541 140.949 94.8068 143.513 95.8321L150.001 98.4269L161.597 103.064Z" fill="#2B45F2"/>
</g>
<path d="M72 150.5C64.4558 137.469 21.6667 46 0.5 0H129.5V34C120 34 105 64 104.5 78.5C104 93 121.5 145 115 162.5C112.957 168 108.5 171.5 101 173C90.5 175.1 83 169.5 72 150.5Z" fill="#FFC2C2"/>
<path d="M108 134C98 132 81.5 138 77 143.5C77.8333 151.5 83.8 168.762 93 169.562C102.2 170.362 108.5 166.333 111 164C111.833 163 114.4 159.562 114 155.562C113.5 150.562 111 138.5 108 134Z" fill="#FFD7D7"/>
</g>
<defs>
<clipPath id="clip0_16_3470">
<rect width="220" height="245" fill="white"/>
</clipPath>
<clipPath id="clip1_16_3470">
<rect width="100" height="150" fill="white" transform="translate(67 95)"/>
</clipPath>
</defs>
</svg>
