<svg width="85" height="89" viewBox="0 0 85 89" fill="none" xmlns="http://www.w3.org/2000/svg">
<g clip-path="url(#clip0_16_2437)">
<rect y="82" width="85" height="7" rx="3.5" fill="#1A6FEE"/>
<g clip-path="url(#clip1_16_2437)">
<path fill-rule="evenodd" clip-rule="evenodd" d="M69.0604 1.2649C66.4913 0.231736 63.5718 1.48323 62.5486 4.05627L61.4082 6.92417C60.8009 8.45134 59.473 9.55786 57.931 10.1264C53.0662 11.9199 45.7568 16.2641 42.6182 24.1568L22.9771 73.5494C21.834 77.4817 21.5893 86.1674 29.7557 89.4515L35.319 91.6889L38.332 92.9006L43.8953 95.1379C52.0616 98.4221 57.8398 91.9617 59.7081 88.3211L79.3492 38.9284C82.493 31.0224 80.1646 22.7932 77.8672 18.125C77.1456 16.6587 76.946 14.9522 77.5498 13.4337L78.7108 10.5141C79.7283 7.95519 78.4852 5.05517 75.9302 4.02767L73.9838 3.24489L70.9708 2.03318L69.0604 1.2649Z" fill="#2B45F2"/>
</g>
</g>
<defs>
<clipPath id="clip0_16_2437">
<rect width="85" height="89" fill="white"/>
</clipPath>
<clipPath id="clip1_16_2437">
<rect width="59" height="89" fill="white" transform="translate(22)"/>
</clipPath>
</defs>
</svg>
