<svg width="200" height="162" viewBox="0 0 200 162" fill="none" xmlns="http://www.w3.org/2000/svg">
<g clip-path="url(#clip0_16_3001)">
<path d="M36 22C36 17.0294 40.0294 13 45 13H155C159.971 13 164 17.0294 164 22V161H36V22Z" fill="white" stroke="black" stroke-width="2"/>
<path d="M45 42C45 36.4772 49.4772 32 55 32H145C150.523 32 155 36.4772 155 42V162H45V42Z" fill="#FAFAFC"/>
<path d="M74.559 98.888C74.7617 98.888 74.943 98.9413 75.103 99.048C75.263 99.1547 75.343 99.32 75.343 99.544V100.728H81.967V99.544C81.967 99.32 82.047 99.1547 82.207 99.048C82.367 98.9413 82.543 98.888 82.735 98.888C82.9377 98.888 83.119 98.9413 83.279 99.048C83.4497 99.1547 83.535 99.32 83.535 99.544V103.56C83.535 104.019 83.4443 104.333 83.263 104.504C83.0923 104.675 82.7723 104.76 82.303 104.76H75.007C74.5377 104.76 74.2177 104.675 74.047 104.504C73.8763 104.333 73.791 104.019 73.791 103.56V99.544C73.791 99.32 73.871 99.1547 74.031 99.048C74.191 98.9413 74.367 98.888 74.559 98.888ZM75.343 103.192C75.343 103.352 75.4283 103.432 75.599 103.432H81.711C81.8817 103.432 81.967 103.352 81.967 103.192V102.04H75.343V103.192ZM79.439 106.488H84.815C85.007 106.488 85.1457 106.557 85.231 106.696C85.327 106.824 85.375 106.979 85.375 107.16C85.375 107.341 85.327 107.501 85.231 107.64C85.1457 107.768 85.007 107.832 84.815 107.832H72.495C72.303 107.832 72.159 107.768 72.063 107.64C71.9777 107.501 71.935 107.341 71.935 107.16C71.935 106.979 71.9777 106.824 72.063 106.696C72.159 106.557 72.303 106.488 72.495 106.488H77.871V104.184H79.439V106.488ZM74.559 108.76C74.7723 108.76 74.959 108.813 75.119 108.92C75.279 109.027 75.359 109.197 75.359 109.432V111.48C75.359 111.704 75.471 111.816 75.695 111.816H83.263C83.455 111.816 83.5937 111.88 83.679 112.008C83.775 112.147 83.823 112.307 83.823 112.488C83.823 112.669 83.775 112.829 83.679 112.968C83.5937 113.107 83.455 113.176 83.263 113.176H74.975C74.5057 113.176 74.1857 113.091 74.015 112.92C73.8443 112.749 73.759 112.435 73.759 111.976V109.432C73.759 109.197 73.839 109.027 73.999 108.92C74.159 108.813 74.3457 108.76 74.559 108.76ZM90.7855 99.272C91.4042 99.272 91.9482 99.368 92.4175 99.56C92.8868 99.752 93.2762 100.013 93.5855 100.344C93.8948 100.675 94.1242 101.069 94.2735 101.528C94.4335 101.976 94.5135 102.461 94.5135 102.984C94.5135 103.517 94.4335 104.013 94.2735 104.472C94.1242 104.92 93.8948 105.309 93.5855 105.64C93.2762 105.971 92.8868 106.232 92.4175 106.424C91.9482 106.616 91.4042 106.712 90.7855 106.712C90.1562 106.712 89.6068 106.616 89.1375 106.424C88.6788 106.232 88.2948 105.971 87.9855 105.64C87.6762 105.309 87.4415 104.92 87.2815 104.472C87.1322 104.013 87.0575 103.517 87.0575 102.984C87.0575 102.461 87.1322 101.976 87.2815 101.528C87.4415 101.069 87.6762 100.675 87.9855 100.344C88.2948 100.013 88.6788 99.752 89.1375 99.56C89.6068 99.368 90.1562 99.272 90.7855 99.272ZM90.7855 100.632C90.3908 100.632 90.0548 100.696 89.7775 100.824C89.5002 100.941 89.2708 101.112 89.0895 101.336C88.9188 101.549 88.7908 101.8 88.7055 102.088C88.6308 102.365 88.5935 102.664 88.5935 102.984C88.5935 103.304 88.6308 103.608 88.7055 103.896C88.7908 104.184 88.9188 104.435 89.0895 104.648C89.2708 104.861 89.5002 105.032 89.7775 105.16C90.0548 105.288 90.3908 105.352 90.7855 105.352C91.1802 105.352 91.5162 105.288 91.7935 105.16C92.0708 105.032 92.2948 104.861 92.4655 104.648C92.6468 104.435 92.7748 104.184 92.8495 103.896C92.9348 103.608 92.9775 103.304 92.9775 102.984C92.9775 102.664 92.9348 102.365 92.8495 102.088C92.7748 101.8 92.6468 101.549 92.4655 101.336C92.2948 101.112 92.0708 100.941 91.7935 100.824C91.5162 100.696 91.1802 100.632 90.7855 100.632ZM97.7615 98.552C97.9748 98.552 98.1615 98.6053 98.3215 98.712C98.4815 98.8187 98.5615 98.9893 98.5615 99.224V108.696C98.5615 108.931 98.4815 109.101 98.3215 109.208C98.1615 109.315 97.9748 109.368 97.7615 109.368C97.5482 109.368 97.3615 109.315 97.2015 109.208C97.0415 109.101 96.9615 108.931 96.9615 108.696V99.224C96.9615 98.9893 97.0415 98.8187 97.2015 98.712C97.3615 98.6053 97.5482 98.552 97.7615 98.552ZM90.0335 108.024C90.2362 108.024 90.4175 108.077 90.5775 108.184C90.7482 108.291 90.8335 108.461 90.8335 108.696V111.4C90.8335 111.517 90.8548 111.597 90.8975 111.64C90.9508 111.693 91.0415 111.72 91.1695 111.72H98.3695C98.5722 111.72 98.7162 111.789 98.8015 111.928C98.8975 112.067 98.9455 112.232 98.9455 112.424C98.9455 112.605 98.8975 112.765 98.8015 112.904C98.7162 113.043 98.5722 113.112 98.3695 113.112H90.4495C89.9802 113.112 89.6548 113.027 89.4735 112.856C89.3028 112.685 89.2175 112.371 89.2175 111.912V108.696C89.2175 108.461 89.2975 108.291 89.4575 108.184C89.6282 108.077 89.8202 108.024 90.0335 108.024ZM105.348 99.272C105.967 99.272 106.511 99.368 106.98 99.56C107.449 99.752 107.839 100.013 108.148 100.344C108.457 100.675 108.687 101.069 108.836 101.528C108.996 101.976 109.076 102.461 109.076 102.984C109.076 103.517 108.996 104.013 108.836 104.472C108.687 104.92 108.457 105.309 108.148 105.64C107.839 105.971 107.449 106.232 106.98 106.424C106.511 106.616 105.967 106.712 105.348 106.712C104.719 106.712 104.169 106.616 103.7 106.424C103.241 106.232 102.857 105.971 102.548 105.64C102.239 105.309 102.004 104.92 101.844 104.472C101.695 104.013 101.62 103.517 101.62 102.984C101.62 102.461 101.695 101.976 101.844 101.528C102.004 101.069 102.239 100.675 102.548 100.344C102.857 100.013 103.241 99.752 103.7 99.56C104.169 99.368 104.719 99.272 105.348 99.272ZM105.348 100.632C104.953 100.632 104.617 100.696 104.34 100.824C104.063 100.941 103.833 101.112 103.652 101.336C103.481 101.549 103.353 101.8 103.268 102.088C103.193 102.365 103.156 102.664 103.156 102.984C103.156 103.304 103.193 103.608 103.268 103.896C103.353 104.184 103.481 104.435 103.652 104.648C103.833 104.861 104.063 105.032 104.34 105.16C104.617 105.288 104.953 105.352 105.348 105.352C105.743 105.352 106.079 105.288 106.356 105.16C106.633 105.032 106.857 104.861 107.028 104.648C107.209 104.435 107.337 104.184 107.412 103.896C107.497 103.608 107.54 103.304 107.54 102.984C107.54 102.664 107.497 102.365 107.412 102.088C107.337 101.8 107.209 101.549 107.028 101.336C106.857 101.112 106.633 100.941 106.356 100.824C106.079 100.696 105.743 100.632 105.348 100.632ZM112.324 98.552C112.537 98.552 112.724 98.6053 112.884 98.712C113.044 98.8187 113.124 98.9893 113.124 99.224V108.696C113.124 108.931 113.044 109.101 112.884 109.208C112.724 109.315 112.537 109.368 112.324 109.368C112.111 109.368 111.924 109.315 111.764 109.208C111.604 109.101 111.524 108.931 111.524 108.696V99.224C111.524 98.9893 111.604 98.8187 111.764 98.712C111.924 98.6053 112.111 98.552 112.324 98.552ZM104.596 108.024C104.799 108.024 104.98 108.077 105.14 108.184C105.311 108.291 105.396 108.461 105.396 108.696V111.4C105.396 111.517 105.417 111.597 105.46 111.64C105.513 111.693 105.604 111.72 105.732 111.72H112.932C113.135 111.72 113.279 111.789 113.364 111.928C113.46 112.067 113.508 112.232 113.508 112.424C113.508 112.605 113.46 112.765 113.364 112.904C113.279 113.043 113.135 113.112 112.932 113.112H105.012C104.543 113.112 104.217 113.027 104.036 112.856C103.865 112.685 103.78 112.371 103.78 111.912V108.696C103.78 108.461 103.86 108.291 104.02 108.184C104.191 108.077 104.383 108.024 104.596 108.024ZM126.855 99.08C127.047 99.08 127.185 99.1493 127.271 99.288C127.367 99.416 127.415 99.5707 127.415 99.752C127.415 99.9333 127.367 100.093 127.271 100.232C127.185 100.36 127.047 100.424 126.855 100.424H123.159V100.664C123.159 100.984 123.26 101.267 123.463 101.512C123.665 101.747 124.039 101.971 124.583 102.184C125.628 102.589 126.583 102.941 127.447 103.24C127.628 103.293 127.745 103.411 127.799 103.592C127.863 103.773 127.863 103.944 127.799 104.104C127.724 104.285 127.612 104.419 127.463 104.504C127.313 104.579 127.137 104.584 126.935 104.52C126.529 104.392 126.097 104.243 125.639 104.072C125.191 103.901 124.727 103.72 124.247 103.528C123.905 103.4 123.617 103.277 123.383 103.16C123.159 103.032 122.972 102.915 122.823 102.808C122.684 102.701 122.577 102.6 122.503 102.504C122.439 102.397 122.391 102.296 122.359 102.2H122.343C122.311 102.296 122.257 102.397 122.183 102.504C122.108 102.611 121.996 102.723 121.847 102.84C121.708 102.947 121.521 103.064 121.287 103.192C121.063 103.309 120.78 103.432 120.439 103.56C119.959 103.752 119.489 103.933 119.031 104.104C118.583 104.275 118.161 104.424 117.767 104.552C117.553 104.616 117.372 104.605 117.223 104.52C117.073 104.435 116.961 104.301 116.887 104.12C116.823 103.96 116.817 103.789 116.871 103.608C116.924 103.416 117.047 103.293 117.239 103.24C118.103 102.941 119.057 102.589 120.103 102.184C120.647 101.971 121.02 101.747 121.223 101.512C121.425 101.267 121.527 100.984 121.527 100.664V100.424H117.831C117.639 100.424 117.495 100.36 117.399 100.232C117.313 100.093 117.271 99.9333 117.271 99.752C117.271 99.5707 117.313 99.416 117.399 99.288C117.495 99.1493 117.639 99.08 117.831 99.08H126.855ZM128.503 105.528C128.695 105.528 128.833 105.592 128.919 105.72C129.015 105.848 129.063 106.008 129.063 106.2C129.063 106.381 129.015 106.541 128.919 106.68C128.833 106.808 128.695 106.872 128.503 106.872H116.183C115.991 106.872 115.847 106.808 115.751 106.68C115.665 106.541 115.623 106.381 115.623 106.2C115.623 106.008 115.665 105.848 115.751 105.72C115.847 105.592 115.991 105.528 116.183 105.528H128.503ZM122.343 108.072C123.889 108.072 125.089 108.296 125.943 108.744C126.807 109.192 127.239 109.885 127.239 110.824C127.239 111.773 126.807 112.467 125.943 112.904C125.089 113.352 123.889 113.576 122.343 113.576C120.796 113.576 119.591 113.352 118.727 112.904C117.873 112.467 117.447 111.773 117.447 110.824C117.447 109.885 117.873 109.192 118.727 108.744C119.591 108.296 120.796 108.072 122.343 108.072ZM122.343 109.352C121.18 109.352 120.337 109.48 119.815 109.736C119.292 109.981 119.031 110.344 119.031 110.824C119.031 111.304 119.292 111.667 119.815 111.912C120.337 112.168 121.18 112.296 122.343 112.296C123.505 112.296 124.348 112.168 124.871 111.912C125.393 111.667 125.655 111.304 125.655 110.824C125.655 110.344 125.393 109.981 124.871 109.736C124.348 109.48 123.505 109.352 122.343 109.352Z" fill="black"/>
<path d="M85.4363 80.944C86.8016 80.944 87.8683 81.136 88.6363 81.52C89.4149 81.904 89.8043 82.5013 89.8043 83.312C89.8043 84.112 89.4149 84.7093 88.6363 85.104C87.8683 85.488 86.8016 85.68 85.4363 85.68C84.0709 85.68 82.9989 85.488 82.2203 85.104C81.4523 84.7093 81.0683 84.112 81.0683 83.312C81.0683 82.5013 81.4523 81.904 82.2203 81.52C82.9989 81.136 84.0709 80.944 85.4363 80.944ZM85.4363 77.216C85.6496 77.216 85.8363 77.264 85.9963 77.36C86.1669 77.456 86.2523 77.6107 86.2523 77.824V78.752H90.4763C90.6683 78.752 90.8069 78.8213 90.8923 78.96C90.9883 79.088 91.0363 79.2427 91.0363 79.424C91.0363 79.6053 90.9883 79.7653 90.8923 79.904C90.8069 80.032 90.6683 80.096 90.4763 80.096H80.3963C80.2043 80.096 80.0603 80.032 79.9643 79.904C79.8789 79.7653 79.8363 79.6053 79.8363 79.424C79.8363 79.2427 79.8789 79.088 79.9643 78.96C80.0603 78.8213 80.2043 78.752 80.3963 78.752H84.6203V77.824C84.6203 77.6107 84.7003 77.456 84.8603 77.36C85.0309 77.264 85.2229 77.216 85.4363 77.216ZM85.4363 82.192C84.4443 82.192 83.7243 82.288 83.2763 82.48C82.8389 82.672 82.6203 82.9493 82.6203 83.312C82.6203 83.664 82.8389 83.9413 83.2763 84.144C83.7243 84.336 84.4443 84.432 85.4363 84.432C86.4283 84.432 87.1429 84.336 87.5803 84.144C88.0283 83.9413 88.2523 83.664 88.2523 83.312C88.2523 82.9493 88.0283 82.672 87.5803 82.48C87.1429 82.288 86.4283 82.192 85.4363 82.192ZM91.5963 86.592C91.7883 86.592 91.9269 86.6613 92.0123 86.8C92.1083 86.928 92.1563 87.0827 92.1563 87.264C92.1563 87.4347 92.1083 87.5893 92.0123 87.728C91.9269 87.856 91.7883 87.92 91.5963 87.92H88.4923V91.76C88.4923 91.9947 88.4123 92.16 88.2523 92.256C88.1029 92.3627 87.9323 92.416 87.7403 92.416C87.5376 92.416 87.3563 92.3627 87.1962 92.256C87.0363 92.16 86.9563 91.9947 86.9563 91.76V87.92H83.9163V91.76C83.9163 91.9947 83.8363 92.16 83.6763 92.256C83.5163 92.3627 83.3403 92.416 83.1483 92.416C82.9456 92.416 82.7643 92.3627 82.6043 92.256C82.4549 92.16 82.3802 91.9947 82.3802 91.76V87.92H79.2763C79.0843 87.92 78.9403 87.856 78.8443 87.728C78.7589 87.5893 78.7163 87.4347 78.7163 87.264C78.7163 87.0827 78.7589 86.928 78.8443 86.8C78.9403 86.6613 79.0843 86.592 79.2763 86.592H91.5963ZM99.1028 78.72C99.3054 78.72 99.4494 78.7893 99.5348 78.928C99.6308 79.0667 99.6788 79.232 99.6788 79.424C99.6788 79.6053 99.6308 79.7653 99.5348 79.904C99.4494 80.032 99.3054 80.096 99.1028 80.096H95.6468C95.4228 80.096 95.3108 80.208 95.3108 80.432V85.904C95.3108 86.128 95.4228 86.24 95.6468 86.24C95.9668 86.24 96.3028 86.2347 96.6548 86.224C97.0174 86.2133 97.3748 86.1973 97.7268 86.176C98.0788 86.1547 98.4201 86.128 98.7508 86.096C99.0814 86.064 99.3854 86.0267 99.6628 85.984C99.8441 85.9627 99.9881 86.0107 100.095 86.128C100.201 86.2347 100.265 86.384 100.287 86.576C100.308 86.768 100.281 86.9387 100.207 87.088C100.143 87.2373 100.02 87.328 99.8388 87.36C99.4334 87.424 98.8094 87.4827 97.9668 87.536C97.1241 87.5893 96.1161 87.616 94.9428 87.616C94.4734 87.616 94.1481 87.5307 93.9668 87.36C93.7961 87.1893 93.7108 86.8747 93.7108 86.416V79.92C93.7108 79.4613 93.7961 79.1467 93.9668 78.976C94.1481 78.8053 94.4734 78.72 94.9428 78.72H99.1028ZM105.055 77.552C105.247 77.552 105.417 77.6053 105.567 77.712C105.727 77.808 105.807 77.9627 105.807 78.176V90.752C105.807 90.9653 105.727 91.12 105.567 91.216C105.417 91.3227 105.247 91.376 105.055 91.376C104.873 91.376 104.703 91.3227 104.543 91.216C104.393 91.12 104.319 90.9653 104.319 90.752V83.824H102.607V90.08C102.607 90.2933 102.527 90.448 102.367 90.544C102.217 90.6507 102.047 90.704 101.855 90.704C101.673 90.704 101.503 90.6507 101.343 90.544C101.193 90.448 101.119 90.2933 101.119 90.08V78.336C101.119 78.1227 101.193 77.968 101.343 77.872C101.503 77.7653 101.673 77.712 101.855 77.712C102.047 77.712 102.217 77.7653 102.367 77.872C102.527 77.968 102.607 78.1227 102.607 78.336V82.464H104.319V78.176C104.319 77.9627 104.393 77.808 104.543 77.712C104.703 77.6053 104.873 77.552 105.055 77.552ZM119.265 78.208C119.447 78.208 119.58 78.272 119.665 78.4C119.761 78.528 119.809 78.6827 119.809 78.864C119.809 79.0453 119.761 79.2 119.665 79.328C119.58 79.456 119.447 79.52 119.265 79.52H117.697V82.432H119.345C119.527 82.432 119.66 82.496 119.745 82.624C119.831 82.752 119.873 82.9067 119.873 83.088C119.873 83.2693 119.831 83.4293 119.745 83.568C119.66 83.696 119.527 83.76 119.345 83.76H109.777C109.596 83.76 109.463 83.696 109.377 83.568C109.292 83.4293 109.249 83.2693 109.249 83.088C109.249 82.9067 109.292 82.752 109.377 82.624C109.463 82.496 109.596 82.432 109.777 82.432H111.425V79.52H109.857C109.676 79.52 109.537 79.456 109.441 79.328C109.356 79.2 109.313 79.0453 109.313 78.864C109.313 78.6827 109.356 78.528 109.441 78.4C109.537 78.272 109.676 78.208 109.857 78.208H119.265ZM116.161 82.432V79.52H112.961V82.432H116.161ZM115.345 85.488H120.721C120.913 85.488 121.052 85.5573 121.137 85.696C121.233 85.824 121.281 85.9787 121.281 86.16C121.281 86.3413 121.233 86.5013 121.137 86.64C121.052 86.768 120.913 86.832 120.721 86.832H108.401C108.209 86.832 108.065 86.768 107.969 86.64C107.884 86.5013 107.841 86.3413 107.841 86.16C107.841 85.9787 107.884 85.824 107.969 85.696C108.065 85.5573 108.209 85.488 108.401 85.488H113.777V83.184H115.345V85.488ZM110.465 87.76C110.679 87.76 110.865 87.8133 111.025 87.92C111.185 88.0267 111.265 88.1973 111.265 88.432V90.48C111.265 90.704 111.377 90.816 111.601 90.816H119.169C119.361 90.816 119.5 90.88 119.585 91.008C119.681 91.1467 119.729 91.3067 119.729 91.488C119.729 91.6693 119.681 91.8293 119.585 91.968C119.5 92.1067 119.361 92.176 119.169 92.176H110.881C110.412 92.176 110.092 92.0907 109.921 91.92C109.751 91.7493 109.665 91.4347 109.665 90.976V88.432C109.665 88.1973 109.745 88.0267 109.905 87.92C110.065 87.8133 110.252 87.76 110.465 87.76Z" fill="black"/>
<rect y="160" width="200" height="2" rx="1" fill="black"/>
<rect x="90" y="22" width="20" height="2" rx="1" fill="black"/>
<path d="M138 5C138 2.23858 140.239 0 143 0H175C177.761 0 180 2.23858 180 5V19C180 21.7614 177.761 24 175 24H144.754C143.619 24 142.517 24.3864 141.63 25.0957L139.625 26.7002C138.97 27.2241 138 26.7579 138 25.9194V5Z" fill="#0880FF"/>
<path d="M148.388 5.738C148.929 5.738 149.405 5.822 149.816 5.99C150.226 6.158 150.567 6.38667 150.838 6.676C151.108 6.96533 151.309 7.31067 151.44 7.712C151.58 8.104 151.65 8.52867 151.65 8.986C151.65 9.45267 151.58 9.88667 151.44 10.288C151.309 10.68 151.108 11.0207 150.838 11.31C150.567 11.5993 150.226 11.828 149.816 11.996C149.405 12.164 148.929 12.248 148.388 12.248C147.837 12.248 147.356 12.164 146.946 11.996C146.544 11.828 146.208 11.5993 145.938 11.31C145.667 11.0207 145.462 10.68 145.322 10.288C145.191 9.88667 145.126 9.45267 145.126 8.986C145.126 8.52867 145.191 8.104 145.322 7.712C145.462 7.31067 145.667 6.96533 145.938 6.676C146.208 6.38667 146.544 6.158 146.946 5.99C147.356 5.822 147.837 5.738 148.388 5.738ZM148.388 6.928C148.042 6.928 147.748 6.984 147.506 7.096C147.263 7.19867 147.062 7.348 146.904 7.544C146.754 7.73067 146.642 7.95 146.568 8.202C146.502 8.44467 146.47 8.706 146.47 8.986C146.47 9.266 146.502 9.532 146.568 9.784C146.642 10.036 146.754 10.2553 146.904 10.442C147.062 10.6287 147.263 10.778 147.506 10.89C147.748 11.002 148.042 11.058 148.388 11.058C148.733 11.058 149.027 11.002 149.27 10.89C149.512 10.778 149.708 10.6287 149.858 10.442C150.016 10.2553 150.128 10.036 150.194 9.784C150.268 9.532 150.306 9.266 150.306 8.986C150.306 8.706 150.268 8.44467 150.194 8.202C150.128 7.95 150.016 7.73067 149.858 7.544C149.708 7.348 149.512 7.19867 149.27 7.096C149.027 6.984 148.733 6.928 148.388 6.928ZM154.492 5.108C154.678 5.108 154.842 5.15467 154.982 5.248C155.122 5.34133 155.192 5.49067 155.192 5.696V13.984C155.192 14.1893 155.122 14.3387 154.982 14.432C154.842 14.5253 154.678 14.572 154.492 14.572C154.305 14.572 154.142 14.5253 154.002 14.432C153.862 14.3387 153.792 14.1893 153.792 13.984V5.696C153.792 5.49067 153.862 5.34133 154.002 5.248C154.142 5.15467 154.305 5.108 154.492 5.108ZM147.73 13.396C147.907 13.396 148.066 13.4427 148.206 13.536C148.355 13.6293 148.43 13.7787 148.43 13.984V16.35C148.43 16.4527 148.448 16.5227 148.486 16.56C148.532 16.6067 148.612 16.63 148.724 16.63H155.024C155.201 16.63 155.327 16.6907 155.402 16.812C155.486 16.9333 155.528 17.078 155.528 17.246C155.528 17.4047 155.486 17.5447 155.402 17.666C155.327 17.7873 155.201 17.848 155.024 17.848H148.094C147.683 17.848 147.398 17.7733 147.24 17.624C147.09 17.4747 147.016 17.1993 147.016 16.798V13.984C147.016 13.7787 147.086 13.6293 147.226 13.536C147.375 13.4427 147.543 13.396 147.73 13.396ZM167.206 5.57C167.374 5.57 167.495 5.63067 167.57 5.752C167.654 5.864 167.696 5.99933 167.696 6.158C167.696 6.31667 167.654 6.45667 167.57 6.578C167.495 6.69 167.374 6.746 167.206 6.746H163.972V6.956C163.972 7.236 164.06 7.48333 164.238 7.698C164.415 7.90333 164.742 8.09933 165.218 8.286C166.132 8.64067 166.968 8.94867 167.724 9.21C167.882 9.25667 167.985 9.35933 168.032 9.518C168.088 9.67667 168.088 9.826 168.032 9.966C167.966 10.1247 167.868 10.2413 167.738 10.316C167.607 10.3813 167.453 10.386 167.276 10.33C166.921 10.218 166.543 10.0873 166.142 9.938C165.75 9.78867 165.344 9.63 164.924 9.462C164.625 9.35 164.373 9.24267 164.168 9.14C163.972 9.028 163.808 8.92533 163.678 8.832C163.556 8.73867 163.463 8.65 163.398 8.566C163.342 8.47267 163.3 8.384 163.272 8.3H163.258C163.23 8.384 163.183 8.47267 163.118 8.566C163.052 8.65933 162.954 8.75733 162.824 8.86C162.702 8.95333 162.539 9.056 162.334 9.168C162.138 9.27067 161.89 9.378 161.592 9.49C161.172 9.658 160.761 9.81667 160.36 9.966C159.968 10.1153 159.599 10.246 159.254 10.358C159.067 10.414 158.908 10.4047 158.778 10.33C158.647 10.2553 158.549 10.1387 158.484 9.98C158.428 9.84 158.423 9.69067 158.47 9.532C158.516 9.364 158.624 9.25667 158.792 9.21C159.548 8.94867 160.383 8.64067 161.298 8.286C161.774 8.09933 162.1 7.90333 162.278 7.698C162.455 7.48333 162.544 7.236 162.544 6.956V6.746H159.31C159.142 6.746 159.016 6.69 158.932 6.578C158.857 6.45667 158.82 6.31667 158.82 6.158C158.82 5.99933 158.857 5.864 158.932 5.752C159.016 5.63067 159.142 5.57 159.31 5.57H167.206ZM168.648 11.212C168.816 11.212 168.937 11.268 169.012 11.38C169.096 11.492 169.138 11.632 169.138 11.8C169.138 11.9587 169.096 12.0987 169.012 12.22C168.937 12.332 168.816 12.388 168.648 12.388H157.868C157.7 12.388 157.574 12.332 157.49 12.22C157.415 12.0987 157.378 11.9587 157.378 11.8C157.378 11.632 157.415 11.492 157.49 11.38C157.574 11.268 157.7 11.212 157.868 11.212H168.648ZM163.258 13.438C164.611 13.438 165.661 13.634 166.408 14.026C167.164 14.418 167.542 15.0247 167.542 15.846C167.542 16.6767 167.164 17.2833 166.408 17.666C165.661 18.058 164.611 18.254 163.258 18.254C161.904 18.254 160.85 18.058 160.094 17.666C159.347 17.2833 158.974 16.6767 158.974 15.846C158.974 15.0247 159.347 14.418 160.094 14.026C160.85 13.634 161.904 13.438 163.258 13.438ZM163.258 14.558C162.24 14.558 161.503 14.67 161.046 14.894C160.588 15.1087 160.36 15.426 160.36 15.846C160.36 16.266 160.588 16.5833 161.046 16.798C161.503 17.022 162.24 17.134 163.258 17.134C164.275 17.134 165.012 17.022 165.47 16.798C165.927 16.5833 166.156 16.266 166.156 15.846C166.156 15.426 165.927 15.1087 165.47 14.894C165.012 14.67 164.275 14.558 163.258 14.558ZM171.744 5.64C171.977 5.64 172.164 5.69133 172.304 5.794C172.453 5.89667 172.523 6.06933 172.514 6.312L172.346 12.92C172.337 13.144 172.271 13.3027 172.15 13.396C172.038 13.48 171.903 13.522 171.744 13.522C171.585 13.522 171.445 13.48 171.324 13.396C171.212 13.3027 171.156 13.144 171.156 12.92L170.974 6.312C170.974 6.06933 171.044 5.89667 171.184 5.794C171.324 5.69133 171.511 5.64 171.744 5.64ZM171.744 14.67C172.005 14.67 172.225 14.7587 172.402 14.936C172.579 15.104 172.668 15.3187 172.668 15.58C172.668 15.8413 172.579 16.0607 172.402 16.238C172.225 16.4153 172.005 16.504 171.744 16.504C171.483 16.504 171.263 16.4153 171.086 16.238C170.909 16.0607 170.82 15.8413 170.82 15.58C170.82 15.3187 170.909 15.104 171.086 14.936C171.263 14.7587 171.483 14.67 171.744 14.67Z" fill="white"/>
</g>
<defs>
<clipPath id="clip0_16_3001">
<rect width="200" height="162" fill="white"/>
</clipPath>
</defs>
</svg>
