<svg width="201" height="162" viewBox="0 0 201 162" fill="none" xmlns="http://www.w3.org/2000/svg">
<g clip-path="url(#clip0_16_2936)">
<path d="M36.5 22C36.5 17.0294 40.5294 13 45.5 13H155.5C160.471 13 164.5 17.0294 164.5 22V161H36.5V22Z" fill="white" stroke="black" stroke-width="2"/>
<path d="M45.5 42C45.5 36.4772 49.9772 32 55.5 32H145.5C151.023 32 155.5 36.4772 155.5 42V162H45.5V42Z" fill="#FAFAFC"/>
<path fill-rule="evenodd" clip-rule="evenodd" d="M120.809 65.8787C119.637 64.7071 117.738 64.7071 116.566 65.8787L98.6342 83.8108L90.0355 75.2122C88.864 74.0406 86.9645 74.0406 85.7929 75.2122L84.3787 76.6264C83.2071 77.7979 83.2071 79.6974 84.3787 80.869L94.6234 91.1137C94.7412 91.3015 94.8818 91.479 95.0452 91.6424L96.4594 93.0566C97.631 94.2282 99.5305 94.2282 100.702 93.0566L122.223 71.5355C123.395 70.364 123.395 68.4645 122.223 67.2929L120.809 65.8787Z" fill="#00D689"/>
<path d="M74.723 104.272C75.3417 104.272 75.8857 104.368 76.355 104.56C76.8243 104.752 77.2137 105.013 77.523 105.344C77.8323 105.675 78.0617 106.069 78.211 106.528C78.371 106.976 78.451 107.461 78.451 107.984C78.451 108.517 78.371 109.013 78.211 109.472C78.0617 109.92 77.8323 110.309 77.523 110.64C77.2137 110.971 76.8243 111.232 76.355 111.424C75.8857 111.616 75.3417 111.712 74.723 111.712C74.0937 111.712 73.5443 111.616 73.075 111.424C72.6163 111.232 72.2323 110.971 71.923 110.64C71.6137 110.309 71.379 109.92 71.219 109.472C71.0697 109.013 70.995 108.517 70.995 107.984C70.995 107.461 71.0697 106.976 71.219 106.528C71.379 106.069 71.6137 105.675 71.923 105.344C72.2323 105.013 72.6163 104.752 73.075 104.56C73.5443 104.368 74.0937 104.272 74.723 104.272ZM74.723 105.632C74.3283 105.632 73.9923 105.696 73.715 105.824C73.4377 105.941 73.2083 106.112 73.027 106.336C72.8563 106.549 72.7283 106.8 72.643 107.088C72.5683 107.365 72.531 107.664 72.531 107.984C72.531 108.304 72.5683 108.608 72.643 108.896C72.7283 109.184 72.8563 109.435 73.027 109.648C73.2083 109.861 73.4377 110.032 73.715 110.16C73.9923 110.288 74.3283 110.352 74.723 110.352C75.1177 110.352 75.4537 110.288 75.731 110.16C76.0083 110.032 76.2323 109.861 76.403 109.648C76.5843 109.435 76.7123 109.184 76.787 108.896C76.8723 108.608 76.915 108.304 76.915 107.984C76.915 107.664 76.8723 107.365 76.787 107.088C76.7123 106.8 76.5843 106.549 76.403 106.336C76.2323 106.112 76.0083 105.941 75.731 105.824C75.4537 105.696 75.1177 105.632 74.723 105.632ZM81.699 103.552C81.9123 103.552 82.099 103.605 82.259 103.712C82.419 103.819 82.499 103.989 82.499 104.224V113.696C82.499 113.931 82.419 114.101 82.259 114.208C82.099 114.315 81.9123 114.368 81.699 114.368C81.4857 114.368 81.299 114.315 81.139 114.208C80.979 114.101 80.899 113.931 80.899 113.696V104.224C80.899 103.989 80.979 103.819 81.139 103.712C81.299 103.605 81.4857 103.552 81.699 103.552ZM73.971 113.024C74.1737 113.024 74.355 113.077 74.515 113.184C74.6857 113.291 74.771 113.461 74.771 113.696V116.4C74.771 116.517 74.7923 116.597 74.835 116.64C74.8883 116.693 74.979 116.72 75.107 116.72H82.307C82.5097 116.72 82.6537 116.789 82.739 116.928C82.835 117.067 82.883 117.232 82.883 117.424C82.883 117.605 82.835 117.765 82.739 117.904C82.6537 118.043 82.5097 118.112 82.307 118.112H74.387C73.9177 118.112 73.5923 118.027 73.411 117.856C73.2403 117.685 73.155 117.371 73.155 116.912V113.696C73.155 113.461 73.235 113.291 73.395 113.184C73.5657 113.077 73.7577 113.024 73.971 113.024ZM96.2295 104.08C96.4215 104.08 96.5602 104.149 96.6455 104.288C96.7415 104.416 96.7895 104.571 96.7895 104.752C96.7895 104.933 96.7415 105.093 96.6455 105.232C96.5602 105.36 96.4215 105.424 96.2295 105.424H92.5335V105.664C92.5335 105.984 92.6348 106.267 92.8375 106.512C93.0402 106.747 93.4135 106.971 93.9575 107.184C95.0028 107.589 95.9575 107.941 96.8215 108.24C97.0028 108.293 97.1202 108.411 97.1735 108.592C97.2375 108.773 97.2375 108.944 97.1735 109.104C97.0988 109.285 96.9868 109.419 96.8375 109.504C96.6882 109.579 96.5122 109.584 96.3095 109.52C95.9042 109.392 95.4722 109.243 95.0135 109.072C94.5655 108.901 94.1015 108.72 93.6215 108.528C93.2802 108.4 92.9922 108.277 92.7575 108.16C92.5335 108.032 92.3468 107.915 92.1975 107.808C92.0588 107.701 91.9522 107.6 91.8775 107.504C91.8135 107.397 91.7655 107.296 91.7335 107.2H91.7175C91.6855 107.296 91.6322 107.397 91.5575 107.504C91.4828 107.611 91.3708 107.723 91.2215 107.84C91.0828 107.947 90.8962 108.064 90.6615 108.192C90.4375 108.309 90.1548 108.432 89.8135 108.56C89.3335 108.752 88.8642 108.933 88.4055 109.104C87.9575 109.275 87.5362 109.424 87.1415 109.552C86.9282 109.616 86.7468 109.605 86.5975 109.52C86.4482 109.435 86.3362 109.301 86.2615 109.12C86.1975 108.96 86.1922 108.789 86.2455 108.608C86.2988 108.416 86.4215 108.293 86.6135 108.24C87.4775 107.941 88.4322 107.589 89.4775 107.184C90.0215 106.971 90.3948 106.747 90.5975 106.512C90.8002 106.267 90.9015 105.984 90.9015 105.664V105.424H87.2055C87.0135 105.424 86.8695 105.36 86.7735 105.232C86.6882 105.093 86.6455 104.933 86.6455 104.752C86.6455 104.571 86.6882 104.416 86.7735 104.288C86.8695 104.149 87.0135 104.08 87.2055 104.08H96.2295ZM97.8775 110.528C98.0695 110.528 98.2082 110.592 98.2935 110.72C98.3895 110.848 98.4375 111.008 98.4375 111.2C98.4375 111.381 98.3895 111.541 98.2935 111.68C98.2082 111.808 98.0695 111.872 97.8775 111.872H85.5575C85.3655 111.872 85.2215 111.808 85.1255 111.68C85.0402 111.541 84.9975 111.381 84.9975 111.2C84.9975 111.008 85.0402 110.848 85.1255 110.72C85.2215 110.592 85.3655 110.528 85.5575 110.528H97.8775ZM91.7175 113.072C93.2642 113.072 94.4642 113.296 95.3175 113.744C96.1815 114.192 96.6135 114.885 96.6135 115.824C96.6135 116.773 96.1815 117.467 95.3175 117.904C94.4642 118.352 93.2642 118.576 91.7175 118.576C90.1708 118.576 88.9655 118.352 88.1015 117.904C87.2482 117.467 86.8215 116.773 86.8215 115.824C86.8215 114.885 87.2482 114.192 88.1015 113.744C88.9655 113.296 90.1708 113.072 91.7175 113.072ZM91.7175 114.352C90.5548 114.352 89.7122 114.48 89.1895 114.736C88.6668 114.981 88.4055 115.344 88.4055 115.824C88.4055 116.304 88.6668 116.667 89.1895 116.912C89.7122 117.168 90.5548 117.296 91.7175 117.296C92.8802 117.296 93.7228 117.168 94.2455 116.912C94.7682 116.667 95.0295 116.304 95.0295 115.824C95.0295 115.344 94.7682 114.981 94.2455 114.736C93.7228 114.48 92.8802 114.352 91.7175 114.352ZM108.152 104.016C108.771 104.016 109.315 104.091 109.784 104.24C110.253 104.379 110.643 104.576 110.952 104.832C111.261 105.088 111.491 105.392 111.64 105.744C111.8 106.096 111.88 106.485 111.88 106.912C111.88 107.328 111.8 107.712 111.64 108.064C111.491 108.416 111.261 108.72 110.952 108.976C110.643 109.232 110.253 109.435 109.784 109.584C109.315 109.723 108.771 109.792 108.152 109.792C107.523 109.792 106.973 109.723 106.504 109.584C106.045 109.435 105.661 109.232 105.352 108.976C105.043 108.72 104.808 108.416 104.648 108.064C104.499 107.712 104.424 107.328 104.424 106.912C104.424 106.485 104.499 106.096 104.648 105.744C104.808 105.392 105.043 105.088 105.352 104.832C105.661 104.576 106.045 104.379 106.504 104.24C106.973 104.091 107.523 104.016 108.152 104.016ZM108.152 105.344C107.384 105.344 106.824 105.493 106.472 105.792C106.12 106.08 105.944 106.453 105.944 106.912C105.944 107.371 106.12 107.749 106.472 108.048C106.824 108.336 107.384 108.48 108.152 108.48C108.92 108.48 109.48 108.336 109.832 108.048C110.184 107.749 110.36 107.371 110.36 106.912C110.36 106.453 110.184 106.08 109.832 105.792C109.48 105.493 108.92 105.344 108.152 105.344ZM114.408 103.552C114.621 103.552 114.808 103.605 114.968 103.712C115.128 103.819 115.208 103.984 115.208 104.208V108.08H116.76C116.973 108.08 117.123 108.149 117.208 108.288C117.304 108.427 117.352 108.592 117.352 108.784C117.352 108.976 117.304 109.141 117.208 109.28C117.123 109.419 116.973 109.488 116.76 109.488H115.208V114.032C115.208 114.256 115.128 114.421 114.968 114.528C114.808 114.635 114.621 114.688 114.408 114.688C114.205 114.688 114.024 114.635 113.864 114.528C113.704 114.421 113.624 114.256 113.624 114.032V104.208C113.624 103.984 113.704 103.819 113.864 103.712C114.024 103.605 114.205 103.552 114.408 103.552ZM112.2 111.12C112.381 111.099 112.52 111.147 112.616 111.264C112.712 111.381 112.771 111.536 112.792 111.728C112.813 111.909 112.781 112.069 112.696 112.208C112.621 112.347 112.493 112.427 112.312 112.448C111.085 112.555 109.779 112.629 108.392 112.672C107.005 112.715 105.571 112.736 104.088 112.736C103.896 112.736 103.752 112.672 103.656 112.544C103.571 112.405 103.528 112.245 103.528 112.064C103.528 111.883 103.571 111.728 103.656 111.6C103.752 111.461 103.896 111.392 104.088 111.392C104.632 111.392 105.176 111.392 105.72 111.392C106.264 111.392 106.819 111.387 107.384 111.376V108.816H108.952V111.328C109.485 111.307 110.019 111.28 110.552 111.248C111.096 111.216 111.645 111.173 112.2 111.12ZM106.504 113.632C106.707 113.632 106.888 113.685 107.048 113.792C107.219 113.899 107.304 114.069 107.304 114.304V116.448C107.304 116.565 107.325 116.651 107.368 116.704C107.421 116.757 107.512 116.784 107.64 116.784H115.032C115.224 116.784 115.363 116.848 115.448 116.976C115.544 117.115 115.592 117.275 115.592 117.456C115.592 117.637 115.544 117.797 115.448 117.936C115.363 118.075 115.224 118.144 115.032 118.144H106.92C106.451 118.144 106.125 118.059 105.944 117.888C105.773 117.717 105.688 117.403 105.688 116.944V114.304C105.688 114.069 105.768 113.899 105.928 113.792C106.099 113.685 106.291 113.632 106.504 113.632ZM128.443 104.384C128.912 104.384 129.232 104.469 129.403 104.64C129.584 104.811 129.675 105.125 129.675 105.584V107.68C129.675 108.128 129.584 108.437 129.403 108.608C129.232 108.779 128.912 108.864 128.443 108.864H121.899C121.675 108.864 121.562 108.976 121.562 109.2V110.368C121.562 110.581 121.675 110.688 121.899 110.688H129.467C129.659 110.688 129.797 110.757 129.883 110.896C129.979 111.035 130.027 111.195 130.027 111.376C130.027 111.557 129.979 111.717 129.883 111.856C129.797 111.984 129.659 112.048 129.467 112.048H121.227C120.757 112.048 120.432 111.963 120.251 111.792C120.08 111.621 119.995 111.307 119.995 110.848V108.752C119.995 108.293 120.08 107.984 120.251 107.824C120.432 107.653 120.757 107.568 121.227 107.568H127.771C127.995 107.568 128.107 107.456 128.107 107.232V106.08C128.107 105.856 127.995 105.744 127.771 105.744H120.523C120.331 105.744 120.187 105.68 120.091 105.552C120.005 105.413 119.963 105.253 119.963 105.072C119.963 104.891 120.005 104.731 120.091 104.592C120.187 104.453 120.331 104.384 120.523 104.384H128.443ZM123.547 114.64H126.203V111.392H127.707V114.64H131.003C131.195 114.64 131.333 114.704 131.419 114.832C131.515 114.96 131.563 115.115 131.563 115.296C131.563 115.477 131.515 115.637 131.419 115.776C131.333 115.915 131.195 115.984 131.003 115.984H118.683C118.491 115.984 118.347 115.915 118.251 115.776C118.165 115.637 118.123 115.477 118.123 115.296C118.123 115.115 118.165 114.96 118.251 114.832C118.347 114.704 118.491 114.64 118.683 114.64H122.043V111.392H123.547V114.64Z" fill="black"/>
<rect x="0.5" y="160" width="200" height="2" rx="1" fill="black"/>
<rect x="90.5" y="22" width="20" height="2" rx="1" fill="black"/>
<path d="M139 5C139 2.23858 141.239 0 144 0H176C178.761 0 181 2.23858 181 5V19C181 21.7614 178.761 24 176 24H145.754C144.619 24 143.517 24.3864 142.63 25.0957L140.625 26.7002C139.97 27.2241 139 26.7579 139 25.9194V5Z" fill="#0880FF"/>
<path d="M149.388 5.738C149.929 5.738 150.405 5.822 150.816 5.99C151.226 6.158 151.567 6.38667 151.838 6.676C152.108 6.96533 152.309 7.31067 152.44 7.712C152.58 8.104 152.65 8.52867 152.65 8.986C152.65 9.45267 152.58 9.88667 152.44 10.288C152.309 10.68 152.108 11.0207 151.838 11.31C151.567 11.5993 151.226 11.828 150.816 11.996C150.405 12.164 149.929 12.248 149.388 12.248C148.837 12.248 148.356 12.164 147.946 11.996C147.544 11.828 147.208 11.5993 146.938 11.31C146.667 11.0207 146.462 10.68 146.322 10.288C146.191 9.88667 146.126 9.45267 146.126 8.986C146.126 8.52867 146.191 8.104 146.322 7.712C146.462 7.31067 146.667 6.96533 146.938 6.676C147.208 6.38667 147.544 6.158 147.946 5.99C148.356 5.822 148.837 5.738 149.388 5.738ZM149.388 6.928C149.042 6.928 148.748 6.984 148.506 7.096C148.263 7.19867 148.062 7.348 147.904 7.544C147.754 7.73067 147.642 7.95 147.568 8.202C147.502 8.44467 147.47 8.706 147.47 8.986C147.47 9.266 147.502 9.532 147.568 9.784C147.642 10.036 147.754 10.2553 147.904 10.442C148.062 10.6287 148.263 10.778 148.506 10.89C148.748 11.002 149.042 11.058 149.388 11.058C149.733 11.058 150.027 11.002 150.27 10.89C150.512 10.778 150.708 10.6287 150.858 10.442C151.016 10.2553 151.128 10.036 151.194 9.784C151.268 9.532 151.306 9.266 151.306 8.986C151.306 8.706 151.268 8.44467 151.194 8.202C151.128 7.95 151.016 7.73067 150.858 7.544C150.708 7.348 150.512 7.19867 150.27 7.096C150.027 6.984 149.733 6.928 149.388 6.928ZM155.492 5.108C155.678 5.108 155.842 5.15467 155.982 5.248C156.122 5.34133 156.192 5.49067 156.192 5.696V13.984C156.192 14.1893 156.122 14.3387 155.982 14.432C155.842 14.5253 155.678 14.572 155.492 14.572C155.305 14.572 155.142 14.5253 155.002 14.432C154.862 14.3387 154.792 14.1893 154.792 13.984V5.696C154.792 5.49067 154.862 5.34133 155.002 5.248C155.142 5.15467 155.305 5.108 155.492 5.108ZM148.73 13.396C148.907 13.396 149.066 13.4427 149.206 13.536C149.355 13.6293 149.43 13.7787 149.43 13.984V16.35C149.43 16.4527 149.448 16.5227 149.486 16.56C149.532 16.6067 149.612 16.63 149.724 16.63H156.024C156.201 16.63 156.327 16.6907 156.402 16.812C156.486 16.9333 156.528 17.078 156.528 17.246C156.528 17.4047 156.486 17.5447 156.402 17.666C156.327 17.7873 156.201 17.848 156.024 17.848H149.094C148.683 17.848 148.398 17.7733 148.24 17.624C148.09 17.4747 148.016 17.1993 148.016 16.798V13.984C148.016 13.7787 148.086 13.6293 148.226 13.536C148.375 13.4427 148.543 13.396 148.73 13.396ZM168.206 5.57C168.374 5.57 168.495 5.63067 168.57 5.752C168.654 5.864 168.696 5.99933 168.696 6.158C168.696 6.31667 168.654 6.45667 168.57 6.578C168.495 6.69 168.374 6.746 168.206 6.746H164.972V6.956C164.972 7.236 165.06 7.48333 165.238 7.698C165.415 7.90333 165.742 8.09933 166.218 8.286C167.132 8.64067 167.968 8.94867 168.724 9.21C168.882 9.25667 168.985 9.35933 169.032 9.518C169.088 9.67667 169.088 9.826 169.032 9.966C168.966 10.1247 168.868 10.2413 168.738 10.316C168.607 10.3813 168.453 10.386 168.276 10.33C167.921 10.218 167.543 10.0873 167.142 9.938C166.75 9.78867 166.344 9.63 165.924 9.462C165.625 9.35 165.373 9.24267 165.168 9.14C164.972 9.028 164.808 8.92533 164.678 8.832C164.556 8.73867 164.463 8.65 164.398 8.566C164.342 8.47267 164.3 8.384 164.272 8.3H164.258C164.23 8.384 164.183 8.47267 164.118 8.566C164.052 8.65933 163.954 8.75733 163.824 8.86C163.702 8.95333 163.539 9.056 163.334 9.168C163.138 9.27067 162.89 9.378 162.592 9.49C162.172 9.658 161.761 9.81667 161.36 9.966C160.968 10.1153 160.599 10.246 160.254 10.358C160.067 10.414 159.908 10.4047 159.778 10.33C159.647 10.2553 159.549 10.1387 159.484 9.98C159.428 9.84 159.423 9.69067 159.47 9.532C159.516 9.364 159.624 9.25667 159.792 9.21C160.548 8.94867 161.383 8.64067 162.298 8.286C162.774 8.09933 163.1 7.90333 163.278 7.698C163.455 7.48333 163.544 7.236 163.544 6.956V6.746H160.31C160.142 6.746 160.016 6.69 159.932 6.578C159.857 6.45667 159.82 6.31667 159.82 6.158C159.82 5.99933 159.857 5.864 159.932 5.752C160.016 5.63067 160.142 5.57 160.31 5.57H168.206ZM169.648 11.212C169.816 11.212 169.937 11.268 170.012 11.38C170.096 11.492 170.138 11.632 170.138 11.8C170.138 11.9587 170.096 12.0987 170.012 12.22C169.937 12.332 169.816 12.388 169.648 12.388H158.868C158.7 12.388 158.574 12.332 158.49 12.22C158.415 12.0987 158.378 11.9587 158.378 11.8C158.378 11.632 158.415 11.492 158.49 11.38C158.574 11.268 158.7 11.212 158.868 11.212H169.648ZM164.258 13.438C165.611 13.438 166.661 13.634 167.408 14.026C168.164 14.418 168.542 15.0247 168.542 15.846C168.542 16.6767 168.164 17.2833 167.408 17.666C166.661 18.058 165.611 18.254 164.258 18.254C162.904 18.254 161.85 18.058 161.094 17.666C160.347 17.2833 159.974 16.6767 159.974 15.846C159.974 15.0247 160.347 14.418 161.094 14.026C161.85 13.634 162.904 13.438 164.258 13.438ZM164.258 14.558C163.24 14.558 162.503 14.67 162.046 14.894C161.588 15.1087 161.36 15.426 161.36 15.846C161.36 16.266 161.588 16.5833 162.046 16.798C162.503 17.022 163.24 17.134 164.258 17.134C165.275 17.134 166.012 17.022 166.47 16.798C166.927 16.5833 167.156 16.266 167.156 15.846C167.156 15.426 166.927 15.1087 166.47 14.894C166.012 14.67 165.275 14.558 164.258 14.558ZM172.744 5.64C172.977 5.64 173.164 5.69133 173.304 5.794C173.453 5.89667 173.523 6.06933 173.514 6.312L173.346 12.92C173.337 13.144 173.271 13.3027 173.15 13.396C173.038 13.48 172.903 13.522 172.744 13.522C172.585 13.522 172.445 13.48 172.324 13.396C172.212 13.3027 172.156 13.144 172.156 12.92L171.974 6.312C171.974 6.06933 172.044 5.89667 172.184 5.794C172.324 5.69133 172.511 5.64 172.744 5.64ZM172.744 14.67C173.005 14.67 173.225 14.7587 173.402 14.936C173.579 15.104 173.668 15.3187 173.668 15.58C173.668 15.8413 173.579 16.0607 173.402 16.238C173.225 16.4153 173.005 16.504 172.744 16.504C172.483 16.504 172.263 16.4153 172.086 16.238C171.909 16.0607 171.82 15.8413 171.82 15.58C171.82 15.3187 171.909 15.104 172.086 14.936C172.263 14.7587 172.483 14.67 172.744 14.67Z" fill="white"/>
</g>
<defs>
<clipPath id="clip0_16_2936">
<rect width="200" height="162" fill="white" transform="translate(0.5)"/>
</clipPath>
</defs>
</svg>
