<svg width="56" height="56" viewBox="0 0 56 56" fill="none" xmlns="http://www.w3.org/2000/svg">
<g clip-path="url(#clip0_16_3503)">
<path fill-rule="evenodd" clip-rule="evenodd" d="M48.3 19.6C52.5526 19.6 56 16.1526 56 11.9C56 7.64742 52.5526 4.20001 48.3 4.20001C44.0474 4.20001 40.6 7.64742 40.6 11.9C40.6 16.1526 44.0474 19.6 48.3 19.6ZM34.3 11.9C35.528 11.9 36.7172 12.0664 37.8461 12.378C37.8156 12.6812 37.8 12.9888 37.8 13.3C37.8 18.3258 41.8742 22.4 46.9 22.4C47.035 22.4 47.1693 22.3971 47.3029 22.3913C47.4975 23.2967 47.6 24.2364 47.6 25.2V42C47.6 44.7062 45.4062 46.9 42.7 46.9C39.9938 46.9 37.8 44.7062 37.8 42V25.2C37.8 23.267 36.233 21.7 34.3 21.7C32.367 21.7 30.8 23.267 30.8 25.2V42C30.8 44.7062 28.6062 46.9 25.9 46.9C23.1938 46.9 21 44.7062 21 42V25.2C21 23.267 19.433 21.7 17.5 21.7C15.567 21.7 14 23.267 14 25.2V42C14 44.7062 11.8062 46.9 9.1 46.9C6.39381 46.9 4.2 44.7062 4.2 42V25.2C4.2 17.8546 10.1546 11.9 17.5 11.9C20.6857 11.9 23.6098 13.0201 25.9 14.8878C28.1902 13.0201 31.1143 11.9 34.3 11.9Z" fill="white"/>
</g>
<defs>
<clipPath id="clip0_16_3503">
<rect width="56" height="56" fill="white"/>
</clipPath>
</defs>
</svg>
